<svg width="32" height="32" viewBox="0 0 32 32" fill="none" xmlns="http://www.w3.org/2000/svg">
<path fill-rule="evenodd" clip-rule="evenodd" d="M4 16C4 17.5759 4.31039 19.1363 4.91345 20.5922C5.5165 22.0481 6.40042 23.371 7.51472 24.4853C8.62902 25.5996 9.95189 26.4835 11.4078 27.0866C12.8637 27.6896 14.4241 28 16 28C17.5759 28 19.1363 27.6896 20.5922 27.0866C22.0481 26.4835 23.371 25.5996 24.4853 24.4853C25.5996 23.371 26.4835 22.0481 27.0866 20.5922C27.6896 19.1363 28 17.5759 28 16C28 12.8174 26.7357 9.76516 24.4853 7.51472C22.2348 5.26428 19.1826 4 16 4C12.8174 4 9.76515 5.26428 7.51472 7.51472C5.26428 9.76516 4 12.8174 4 16Z" fill="#0C0C4F"/>
<path fill-rule="evenodd" clip-rule="evenodd" d="M10.7053 13.1734L11.0013 12.2587C11.0313 12.1674 11.0828 12.0845 11.1515 12.0173C11.2202 11.95 11.304 11.9002 11.396 11.872L12.316 11.588C12.3438 11.5795 12.3681 11.5623 12.3854 11.5389C12.4027 11.5155 12.412 11.4871 12.412 11.458C12.412 11.429 12.4027 11.4006 12.3854 11.3772C12.3681 11.3538 12.3438 11.3366 12.316 11.328L11.4013 11.032C11.3101 11.0022 11.2274 10.9509 11.1601 10.8824C11.0928 10.814 11.0429 10.7304 11.0146 10.6387L10.7306 9.71872C10.692 9.59205 10.512 9.59072 10.472 9.71738L10.176 10.632C10.1462 10.7237 10.0947 10.8067 10.0261 10.8743C9.95736 10.9418 9.87341 10.9918 9.78131 11.02L8.86131 11.3027C8.83346 11.3111 8.80903 11.3282 8.79162 11.3515C8.77421 11.3749 8.76474 11.4031 8.76459 11.4322C8.76444 11.4613 8.77362 11.4897 8.79079 11.5132C8.80796 11.5367 8.83221 11.554 8.85998 11.5627L9.77464 11.8587C9.8665 11.8883 9.94985 11.9397 10.0176 12.0084C10.0854 12.0771 10.1356 12.1611 10.164 12.2534L10.4453 13.172C10.4853 13.2987 10.664 13.3 10.7053 13.1734Z" fill="#FAFAFA"/>
<path fill-rule="evenodd" clip-rule="evenodd" d="M25.2413 12.6417C24.8627 12.2177 24.2707 11.9791 23.6947 11.8817C23.1112 11.7896 22.5164 11.795 21.9347 11.8977C20.7773 12.0937 19.7253 12.5737 18.8067 13.1644C18.3307 13.4551 17.924 13.7911 17.5027 14.1337C17.3 14.3071 17.116 14.4911 16.9227 14.6724L16.396 15.1964C15.8653 15.7575 15.3044 16.2894 14.716 16.7897C14.168 17.2391 13.656 17.5804 13.1507 17.8177C12.6467 18.0577 12.1067 18.1991 11.404 18.2217C10.7067 18.2457 9.88135 18.1204 9.00001 17.9124C8.11335 17.7057 7.18135 17.4111 6.14001 17.1577C6.50451 18.1542 7.05165 19.0739 7.75335 19.8697C8.46268 20.6697 9.35068 21.3977 10.4893 21.8777C11.7053 22.3919 13.0471 22.5312 14.3427 22.2777C15.6667 22.0231 16.828 21.4111 17.7667 20.7031C18.6527 20.0211 19.4413 19.2213 20.1107 18.3257C20.288 18.0911 20.3813 17.9604 20.5093 17.7777L20.864 17.2524C21.1093 16.9271 21.3347 16.5591 21.5773 16.2364C22.056 15.5631 22.5267 14.8897 23.0747 14.2697C23.3493 13.9551 23.64 13.6551 23.9827 13.3657C24.1547 13.2244 24.34 13.0857 24.544 12.9617C24.752 12.8284 24.9707 12.7217 25.2413 12.6417Z" fill="url(#paint0_linear_1306_5981)"/>
<path fill-rule="evenodd" clip-rule="evenodd" d="M25.2413 12.6401C24.8347 11.6134 24.0773 10.7481 23.0613 10.1094C21.9218 9.41811 20.5656 9.17615 19.2573 9.43075C18.5707 9.56408 17.9053 9.82008 17.3213 10.1601C16.757 10.4907 16.2353 10.8892 15.768 11.3467C15.5487 11.5647 15.3379 11.7911 15.136 12.0254L14.6093 12.6961L13.796 13.7761C12.7613 15.1654 11.6453 16.7934 9.81468 17.2761C8.01735 17.7494 7.23735 17.3294 6.14001 17.1561C6.34001 17.6747 6.58935 18.1774 6.92668 18.6201C7.25735 19.0707 7.64668 19.4947 8.13335 19.8587C8.37868 20.0321 8.63735 20.2054 8.92535 20.3521C9.21068 20.4921 9.52001 20.6174 9.84935 20.7107C10.5352 20.8997 11.2519 20.9496 11.9573 20.8574C12.6524 20.7603 13.3267 20.5494 13.9533 20.2334C14.5228 19.947 15.0578 19.5968 15.548 19.1894C16.4094 18.463 17.1711 17.626 17.8133 16.7001C18.1191 16.2672 18.4009 15.8299 18.6587 15.3881L18.9613 14.8654C19.0547 14.7107 19.1489 14.5605 19.244 14.4147C19.6293 13.8387 20.0053 13.3774 20.4627 13.0294C20.9147 12.6747 21.5427 12.4121 22.3813 12.3494C23.2173 12.2881 24.1813 12.4027 25.2413 12.6414" fill="#FAFAFA"/>
<path fill-rule="evenodd" clip-rule="evenodd" d="M20.7213 21.1798C20.7156 21.3629 20.7467 21.5454 20.8129 21.7163C20.879 21.8872 20.9788 22.043 21.1063 22.1746C21.2339 22.3062 21.3865 22.4108 21.5553 22.4822C21.724 22.5537 21.9054 22.5905 22.0886 22.5905C22.2719 22.5905 22.4533 22.5537 22.622 22.4822C22.7907 22.4108 22.9434 22.3062 23.0709 22.1746C23.1985 22.043 23.2983 21.8872 23.3644 21.7163C23.4306 21.5454 23.4617 21.3629 23.456 21.1798C23.4449 20.8245 23.296 20.4876 23.0407 20.2402C22.7855 19.9928 22.4441 19.8545 22.0886 19.8545C21.7332 19.8545 21.3918 19.9928 21.1365 20.2402C20.8813 20.4876 20.7324 20.8245 20.7213 21.1798Z" fill="#EC796B"/>
<defs>
<linearGradient id="paint0_linear_1306_5981" x1="27.8707" y1="5.0564" x2="-18.1427" y2="18.3231" gradientUnits="userSpaceOnUse">
<stop stop-color="#EC796B"/>
<stop offset="1" stop-color="#D672EF"/>
</linearGradient>
</defs>
</svg>
