<svg width="32" height="32" viewBox="0 0 32 32" fill="none" xmlns="http://www.w3.org/2000/svg">
<path d="M7.768 17.1317C7.52804 15.2562 7.88937 13.3528 8.8 11.6957C9.5108 10.3977 10.5469 9.30693 11.8067 8.53037C13.0465 7.76932 14.4693 7.35833 15.924 7.34104C17.3781 7.32657 18.8089 7.70673 20.064 8.44104L21.9653 7.43037C20.4713 6.28596 18.6794 5.59591 16.8037 5.44269C14.928 5.28948 13.0479 5.67958 11.388 6.56637C9.70418 7.46864 8.30342 8.82 7.34133 10.4704C6.22081 12.3851 5.70928 14.5954 5.87467 16.8077C5.904 17.185 5.82267 17.5637 5.644 17.897C5.46533 18.229 5.19733 18.497 4.872 18.6704L4 19.133V21.2957L28 8.54104V6.38104L7.768 17.1317ZM28 10.7064L9.05333 20.7677L4 23.453V25.6144L24.2373 14.861C24.2844 15.2388 24.308 15.6188 24.308 16.001C24.3097 17.5075 23.9304 18.9899 23.2053 20.3104C22.4936 21.6093 21.456 22.7007 20.1947 23.477C18.9533 24.237 17.528 24.649 16.072 24.6637C14.6164 24.6766 13.1846 24.2941 11.9293 23.557L11.828 23.613L10.0347 24.5664C11.5343 25.7068 13.3279 26.3959 15.2053 26.553C17.0773 26.7049 18.9536 26.3157 20.6107 25.4317C22.294 24.5305 23.6947 23.1806 24.6573 21.5317C25.7794 19.6147 26.291 17.4014 26.124 15.1864C26.0973 14.809 26.1773 14.4317 26.356 14.0984C26.5301 13.7696 26.7984 13.5003 27.1267 13.325L28 12.8624V10.7064Z" fill="#E1E1E1"/>
</svg>
