<svg width="32" height="32" viewBox="0 0 32 32" fill="none" xmlns="http://www.w3.org/2000/svg">
<path d="M27.548 9.62658L17.0867 26.2852C16.9592 26.4876 16.7823 26.6542 16.5727 26.7694C16.3631 26.8846 16.1277 26.9447 15.8885 26.9439C15.6493 26.9431 15.4142 26.8815 15.2054 26.7649C14.9966 26.6483 14.8208 26.4805 14.6947 26.2772L4.43735 9.61858C4.14946 9.15226 3.99796 8.61461 4.00002 8.06658C4.01231 7.25699 4.34565 6.48543 4.92675 5.92159C5.50784 5.35774 6.28909 5.0478 7.09869 5.05991H24.9147C26.6174 5.05858 28 6.39991 28 8.05858C28 8.60925 27.8454 9.15325 27.548 9.62658ZM6.95735 9.06658L14.588 20.8346V7.88258H7.75469C6.96535 7.88258 6.61202 8.40525 6.95735 9.06925M17.4107 20.8372L25.044 9.06658C25.3974 8.40391 25.036 7.87991 24.2454 7.87991H17.4134L17.4107 20.8372Z" fill="#0088CC"/>
</svg>
